<?xml version="1.0" encoding="utf-8"?>
<!-- Generator: Adobe Illustrator 27.5.0, SVG Export Plug-In . SVG Version: 6.00 Build 0)  -->
<svg version="1.1" xmlns="http://www.w3.org/2000/svg" xmlns:xlink="http://www.w3.org/1999/xlink" x="0px" y="0px"
	 viewBox="0 0 500 500" style="enable-background:new 0 0 500 500;" xml:space="preserve">
<g id="BACKGROUND">
	<g>
		<defs>
			<rect id="SVGID_1_" width="500" height="500"/>
		</defs>
		<clipPath id="SVGID_00000060031063696158635530000006539619508609824687_">
			<use xlink:href="#SVGID_1_"  style="overflow:visible;"/>
		</clipPath>
		<g style="clip-path:url(#SVGID_00000060031063696158635530000006539619508609824687_);">
			<rect style="fill:#22004C;" width="500" height="500"/>
		</g>
		<g style="opacity:0.17;clip-path:url(#SVGID_00000060031063696158635530000006539619508609824687_);">
			
				<linearGradient id="SVGID_00000000937014779659206980000017096269112405073538_" gradientUnits="userSpaceOnUse" x1="142.9565" y1="300.7835" x2="576.833" y2="173.9889">
				<stop  offset="0" style="stop-color:#BAFF3F"/>
				<stop  offset="1" style="stop-color:#00EBCE"/>
			</linearGradient>
			<path style="fill:url(#SVGID_00000000937014779659206980000017096269112405073538_);" d="M504.717,221.767
				c-3.329,13.472-16.682,21.832-30.154,19.059l-0.476-0.079c-17.831-3.685-36.335-3.844-54.482-1.03
				c-8.559,1.307-17.038,3.289-25.359,5.904c-3.566,1.109-7.132,2.298-10.619,3.685c-1.07,0.357-2.1,0.753-3.13,1.189
				c-0.278-18.345,0.238-36.057,2.219-53.056c0.278-2.377,0.555-4.715,0.911-7.053c4.24-1.03,8.519-1.942,12.838-2.694
				c0.04,0,0.119,0,0.159-0.04c3.051-0.476,6.062-0.951,9.113-1.347c8.559-1.109,17.236-1.783,25.914-1.981
				c3.17-0.079,6.38-0.079,9.549,0c15.018,0.594,30.035,2.654,44.695,6.3C499.725,194.031,508.125,207.978,504.717,221.767z"/>
			
				<linearGradient id="SVGID_00000096041993299845515860000014516116950538310076_" gradientUnits="userSpaceOnUse" x1="176.1598" y1="277.2787" x2="596.8265" y2="277.2787">
				<stop  offset="0" style="stop-color:#2A41FF"/>
				<stop  offset="1" style="stop-color:#DF11FF"/>
			</linearGradient>
			<path style="fill:url(#SVGID_00000096041993299845515860000014516116950538310076_);" d="M564.034-30.872l-2.338-1.109
				c-11.055-5.27-22.625-9.153-34.275-11.649c-8.123-1.783-16.285-2.892-24.329-3.408c-19.653-1.268-38.712,0.912-56.622,5.547
				c-22.982,6.062-44.299,15.889-63.318,29.203c-10.54,7.33-20.367,15.73-29.44,25.081c-24.289,25.32-41.01,55.434-51.748,85.547
				c-10.777,30.272-16.087,60.861-17.949,90.896c-1.03,17.276-0.99,34.195-0.277,50.678c-2.179,1.743-4.319,3.566-6.459,5.389
				c-11.332,9.946-21.436,20.763-30.906,32.214c-9.351,11.491-17.593,23.774-25.121,36.454
				c-7.449,12.719-13.749,25.993-19.376,39.505c-11.055,27.102-18.425,55.473-22.427,84.239l-1.347,10.857
				c-0.357,3.606-0.634,7.212-0.951,10.857c-0.674,7.211-0.951,14.66-0.991,22.466c0,7.331,0.357,15.057,1.387,23.021
				c1.109,8.915,3.011,18.108,6.141,27.538c0.911,2.536,1.862,5.072,2.892,7.608c0.793,1.902,1.625,3.804,2.576,5.706l1.585,3.289
				l1.942,3.448c1.268,2.338,2.734,4.477,4.16,6.656c0.634,0.951,1.268,1.862,1.981,2.774c5.428,7.489,11.887,14.225,19.336,20.129
				c8.361,6.538,18.029,12.164,29.282,15.81c11.213,3.605,24.091,5.111,36.929,3.328c12.442-1.704,24.566-6.498,34.393-12.917
				c9.906-6.419,17.672-14.066,23.932-21.793c12.521-15.572,19.812-31.382,25.399-47.231c10.065-29.322,14.978-59.078,17.078-88.003
				c2.06-28.925,1.427-57.058,0.079-84.2c-1.783-33.759-4.358-66.053-4.755-96.562c-0.278-18.345,0.238-36.057,2.219-53.056
				c0.278-2.377,0.555-4.715,0.911-7.053c2.695-19.653,7.529-38.554,14.581-55.354c7.885-18.861,18.504-34.909,31.342-46.835
				c0.436-0.396,0.872-0.793,1.308-1.189c11.53-10.263,26.785-17.83,41.486-20.644c4.319-0.832,8.559-1.308,12.561-1.347
				c3.13-0.079,6.142,0.079,8.955,0.476c6.538,0.832,12.125,2.773,16.919,5.507c0.317,0.159,0.674,0.357,1.03,0.555
				c0.911,0.475,1.862,0.951,2.734,1.387c7.251,3.448,14.819,5.27,22.347,5.547c22.348,0.951,44.101-11.293,54.324-32.729
				C604.886,17.112,592.721-17.202,564.034-30.872z M288.928,493.703c-2.536,9.074-6.379,17.474-10.064,22.625
				c-1.823,2.575-3.487,4.28-4.517,5.19c-1.07,0.872-1.426,1.07-1.941,1.347c-0.198,0.158-0.674,0.396-1.981,0.198
				c-1.308-0.198-3.289-1.03-5.349-2.377c-2.1-1.347-4.239-3.289-5.864-5.389c-0.396-0.555-0.872-1.07-1.189-1.625l-0.555-0.792
				l-0.594-1.07c-0.872-1.466-1.585-3.09-2.338-4.794c-2.813-6.895-4.596-16.087-5.111-26.746
				c-0.237-5.349-0.357-11.015-0.079-16.88l0.317-8.796l0.634-8.757c2.021-23.299,6.815-46.399,14.462-68.351
				c6.618-18.98,15.453-37.087,26.429-53.571c1.109,10.144,2.219,20.089,3.209,29.916c2.536,25.201,4.24,49.609,3.725,73.105
				C297.645,450.394,294.872,472.98,288.928,493.703z"/>
			<path style="fill:#F0FFEA;" d="M283.738,239.915"/>
			
				<linearGradient id="SVGID_00000008840029071578350830000008279661675522795399_" gradientUnits="userSpaceOnUse" x1="232.6577" y1="508.0574" x2="235.2993" y2="233.3335">
				<stop  offset="0" style="stop-color:#0012A5"/>
				<stop  offset="1" style="stop-color:#00E0CA"/>
			</linearGradient>
			<path style="fill:url(#SVGID_00000008840029071578350830000008279661675522795399_);" d="M265.075,520.687
				c2.06,1.347,4.042,2.179,5.349,2.377c0,0-2.892,1.229-7.845,2.536c-15.81,4.24-52.7,9.43-85.032-20.683
				c-1.03-7.964-1.387-15.691-1.387-23.021c0-3.209,0.079-6.339,0.199-9.391c0.118-4.477,0.396-8.796,0.792-13.075
				c0.317-3.646,0.594-7.251,0.951-10.857l0.753-6.022l0.594-4.834c0.753-5.468,1.664-10.897,2.654-16.325
				c4.279-23.18,10.817-45.963,19.772-67.915c5.626-13.512,11.926-26.785,19.376-39.505c7.529-12.68,15.77-24.963,25.121-36.454
				c9.47-11.451,19.574-22.268,30.906-32.214c2.14-1.823,4.28-3.645,6.459-5.389c0,0,0.595,23.616,2.496,47.073
				c1.11,14.066,2.734,28.093,4.953,36.929c-10.976,16.484-19.812,34.591-26.429,53.571c-7.647,21.952-12.441,45.052-14.462,68.351
				l-0.634,8.757l-0.317,8.796c-0.278,5.864-0.158,11.53,0.079,16.88c0.357,7.172,1.268,13.67,2.695,19.218
				c0.673,2.734,1.506,5.27,2.417,7.529c0.753,1.704,1.466,3.328,2.338,4.794l0.594,1.07l0.555,0.792
				c0.317,0.555,0.793,1.07,1.189,1.625C260.835,517.398,262.975,519.339,265.075,520.687z"/>
			
				<linearGradient id="SVGID_00000053543010255483612470000008736595939860936600_" gradientUnits="userSpaceOnUse" x1="382.5935" y1="182.616" x2="399.9288" y2="241.556">
				<stop  offset="0" style="stop-color:#000000"/>
				<stop  offset="1" style="stop-color:#000000;stop-opacity:0"/>
			</linearGradient>
			<path style="opacity:0.32;fill:url(#SVGID_00000053543010255483612470000008736595939860936600_);" d="M405.738,186.304
				c-4.913,15.294-10.025,36.057-11.491,59.316c-4.636,1.426-9.232,3.051-13.749,4.874c-0.278-18.345,0.238-36.057,2.219-53.056
				c0.278-2.377,0.555-4.715,0.911-7.053c4.24-1.03,8.519-1.942,12.838-2.694C399.557,187.176,402.648,186.701,405.738,186.304z"/>
			
				<linearGradient id="SVGID_00000093166797480973516920000000402167734744981915_" gradientUnits="userSpaceOnUse" x1="202.1128" y1="454.2274" x2="225.0909" y2="532.3531">
				<stop  offset="0" style="stop-color:#000000"/>
				<stop  offset="1" style="stop-color:#000000;stop-opacity:0"/>
			</linearGradient>
			<path style="opacity:0.31;fill:url(#SVGID_00000093166797480973516920000000402167734744981915_);" d="M177.547,504.916
				c-1.03-7.964-1.387-15.691-1.387-23.021c0-3.209,0.079-6.339,0.199-9.391c16.76,18.425,44.101,40.178,86.221,53.096
				C246.769,529.839,209.879,535.03,177.547,504.916z"/>
			
				<linearGradient id="SVGID_00000017475989333471248500000010787986136676546946_" gradientUnits="userSpaceOnUse" x1="198.1651" y1="281.2856" x2="266.0233" y2="512.0042">
				<stop  offset="0" style="stop-color:#000000"/>
				<stop  offset="1" style="stop-color:#000000;stop-opacity:0"/>
			</linearGradient>
			<path style="opacity:0.28;fill:url(#SVGID_00000017475989333471248500000010787986136676546946_);" d="M265.075,520.687
				c2.06,1.347,4.042,2.179,5.349,2.377c0,0-2.892,1.229-7.845,2.536c-15.81,4.24-52.7,9.43-85.032-20.683
				c-1.03-7.964-1.387-15.691-1.387-23.021c0-3.209,0.079-6.339,0.199-9.391c0.118-4.477,0.396-8.796,0.792-13.075
				c0.317-3.646,0.594-7.251,0.951-10.857l0.753-6.022c10.143,18.543,27.142,43.744,41.327,35.542
				c21.119-12.125,0.079-130.322,66.052-191.104c1.11,14.066,2.734,28.093,4.953,36.929c-10.976,16.484-19.812,34.591-26.429,53.571
				c-7.647,21.952-12.441,45.052-14.462,68.351l-0.634,8.757l-0.317,8.796c-0.278,5.864-0.158,11.53,0.079,16.88
				c0.357,7.172,1.268,13.67,2.695,19.218c0.673,2.734,1.506,5.27,2.417,7.529c0.753,1.704,1.466,3.328,2.338,4.794l0.594,1.07
				l0.555,0.792c0.317,0.555,0.793,1.07,1.189,1.625C260.835,517.398,262.975,519.339,265.075,520.687z"/>
			
				<linearGradient id="SVGID_00000181790054278503298170000018373037445415492237_" gradientUnits="userSpaceOnUse" x1="181.003" y1="696.2371" x2="500.6319" y2="54.339">
				<stop  offset="0" style="stop-color:#FFFFFF"/>
				<stop  offset="1" style="stop-color:#FFFFFF;stop-opacity:0"/>
			</linearGradient>
			<path style="opacity:0.27;fill:url(#SVGID_00000181790054278503298170000018373037445415492237_);" d="M484.906,65.017
				c-4.002,0.039-8.242,0.515-12.561,1.347c-15.255,2.932-31.144,10.976-42.793,21.833c-12.838,11.926-23.457,27.974-31.342,46.835
				c-7.053,16.8-11.887,35.701-14.581,55.354c-0.356,2.338-0.634,4.675-0.911,7.053c-1.981,16.999-2.496,34.711-2.219,53.056
				c0.397,30.51,2.972,62.803,4.755,96.562c1.347,27.142,1.981,55.275-0.079,84.2c-2.1,28.925-7.013,58.682-17.078,88.003
				c-5.587,15.849-12.878,31.659-25.399,47.231c-6.26,7.727-14.027,15.374-23.932,21.793c-9.827,6.419-21.951,11.214-34.393,12.917
				c-12.838,1.783-25.716,0.277-36.929-3.328c-11.253-3.646-20.921-9.272-29.282-15.81c-8.36-6.617-15.453-14.265-21.317-22.903
				c-1.426-2.179-2.892-4.319-4.16-6.656l-1.942-3.448l-1.585-3.289c-0.951-1.902-1.783-3.803-2.576-5.706
				c28.212,18.385,84.596,46.122,130.044,12.006c63.397-47.549,10.223-326.893,44.893-418.701
				C392.605,51.051,459.23,59.628,484.906,65.017z"/>
			
				<linearGradient id="SVGID_00000096038599181662959640000014412912423845425574_" gradientUnits="userSpaceOnUse" x1="193.0271" y1="692.4506" x2="488.6895" y2="98.6833">
				<stop  offset="0" style="stop-color:#FFFFFF"/>
				<stop  offset="1" style="stop-color:#FFFFFF;stop-opacity:0"/>
			</linearGradient>
			<path style="opacity:0.17;fill:url(#SVGID_00000096038599181662959640000014412912423845425574_);" d="M430.859,87.008
				c-0.435,0.396-0.871,0.792-1.308,1.189c-12.838,11.926-23.457,27.974-31.342,46.835c-7.053,16.8-11.887,35.701-14.581,55.354
				c-0.356,2.338-0.634,4.675-0.911,7.053c-1.981,16.999-2.496,34.711-2.219,53.056c0.397,30.51,2.972,62.803,4.755,96.562
				c1.347,27.142,1.981,55.275-0.079,84.2c-2.1,28.925-7.013,58.682-17.078,88.003c-5.587,15.849-12.878,31.659-25.399,47.231
				c-6.26,7.727-14.027,15.374-23.932,21.793c-9.827,6.419-21.951,11.214-34.393,12.917c-12.838,1.783-25.716,0.277-36.929-3.328
				c-11.253-3.646-20.921-9.272-29.282-15.81c-7.449-5.904-13.908-12.64-19.336-20.129c-0.476-1.03-0.911-2.021-1.347-3.051
				c28.212,18.385,84.596,46.122,130.044,12.006c63.397-47.548,10.223-326.893,44.893-418.701
				C386.838,114.071,408.829,95.448,430.859,87.008z"/>
			
				<linearGradient id="SVGID_00000018948142782948687720000003663266568622065553_" gradientUnits="userSpaceOnUse" x1="459.9527" y1="71.4335" x2="522.9113" y2="-55.0039">
				<stop  offset="0" style="stop-color:#FFFFFF"/>
				<stop  offset="1" style="stop-color:#FFFFFF;stop-opacity:0"/>
			</linearGradient>
			<path style="opacity:0.3;fill:url(#SVGID_00000018948142782948687720000003663266568622065553_);" d="M591.215,45.76
				c-13.67,28.687-47.984,40.852-76.671,27.182c-0.872-0.436-1.823-0.911-2.734-1.387c43.229-99.534-52.897-98.068-128.657-83.843
				c19.019-13.314,40.336-23.14,63.318-29.203c17.91-4.636,36.969-6.815,56.622-5.547c19.614,1.229,39.861,6.102,58.603,15.057
				l2.338,1.109C592.721-17.202,604.886,17.112,591.215,45.76z"/>
			
				<linearGradient id="SVGID_00000039844508283253585660000018254040197249149332_" gradientUnits="userSpaceOnUse" x1="514.1736" y1="91.7368" x2="574.3974" y2="-29.2084">
				<stop  offset="0" style="stop-color:#FFFFFF"/>
				<stop  offset="1" style="stop-color:#FFFFFF;stop-opacity:0"/>
			</linearGradient>
			<path style="opacity:0.3;fill:url(#SVGID_00000039844508283253585660000018254040197249149332_);" d="M591.215,45.76
				c-10.223,21.436-31.976,33.68-54.324,32.729c44.695-60.703,16.999-100.802-9.47-122.119c11.649,2.496,23.219,6.379,34.275,11.649
				l2.338,1.109C592.721-17.202,604.886,17.112,591.215,45.76z"/>
		</g>
	</g>
</g>
<g id="OBJECTS">
	<g>
		
			<linearGradient id="SVGID_00000106139804520085609380000015237700667931830463_" gradientUnits="userSpaceOnUse" x1="202.4358" y1="198.0144" x2="317.4611" y2="164.3998">
			<stop  offset="0" style="stop-color:#BAFF3F"/>
			<stop  offset="1" style="stop-color:#00EBCE"/>
		</linearGradient>
		<path style="fill:url(#SVGID_00000106139804520085609380000015237700667931830463_);" d="M298.342,177.066
			c-0.883,3.572-4.422,5.788-7.994,5.053l-0.126-0.021c-4.727-0.977-9.633-1.019-14.444-0.273c-2.269,0.347-4.517,0.872-6.723,1.565
			c-0.945,0.294-1.891,0.609-2.815,0.977c-0.284,0.095-0.557,0.2-0.83,0.315c-0.074-4.864,0.063-9.559,0.588-14.066
			c0.074-0.63,0.147-1.25,0.242-1.87c1.124-0.273,2.259-0.515,3.404-0.714c0.011,0,0.031,0,0.042-0.01
			c0.809-0.126,1.607-0.252,2.416-0.357c2.269-0.294,4.569-0.473,6.87-0.525c0.84-0.021,1.691-0.021,2.532,0
			c3.981,0.158,7.963,0.704,11.849,1.67C297.019,169.713,299.246,173.411,298.342,177.066z"/>
		
			<linearGradient id="SVGID_00000121244762648758561580000015119844166257250972_" gradientUnits="userSpaceOnUse" x1="211.2385" y1="191.783" x2="322.7615" y2="191.783">
			<stop  offset="0" style="stop-color:#2A41FF"/>
			<stop  offset="1" style="stop-color:#DF11FF"/>
		</linearGradient>
		<path style="fill:url(#SVGID_00000121244762648758561580000015119844166257250972_);" d="M314.068,110.089l-0.62-0.294
			c-2.931-1.397-5.998-2.427-9.086-3.088c-2.153-0.473-4.317-0.767-6.45-0.904c-5.21-0.336-10.263,0.242-15.011,1.471
			c-6.093,1.607-11.744,4.212-16.786,7.742c-2.794,1.943-5.399,4.17-7.805,6.649c-6.439,6.712-10.872,14.696-13.719,22.68
			c-2.857,8.025-4.265,16.135-4.759,24.097c-0.273,4.58-0.262,9.066-0.074,13.435c-0.578,0.462-1.145,0.945-1.712,1.429
			c-3.004,2.637-5.683,5.505-8.193,8.54c-2.479,3.046-4.664,6.303-6.66,9.664c-1.975,3.372-3.645,6.891-5.137,10.473
			c-2.931,7.185-4.885,14.706-5.946,22.333l-0.357,2.878c-0.095,0.956-0.168,1.912-0.252,2.878
			c-0.179,1.912-0.252,3.887-0.263,5.956c0,1.943,0.094,3.992,0.368,6.103c0.294,2.364,0.798,4.8,1.628,7.301
			c0.242,0.672,0.494,1.345,0.767,2.017c0.21,0.504,0.431,1.009,0.683,1.513l0.42,0.872l0.515,0.914
			c0.336,0.62,0.725,1.187,1.103,1.765c0.168,0.252,0.336,0.494,0.525,0.735c1.439,1.985,3.151,3.771,5.126,5.336
			c2.217,1.733,4.78,3.225,7.763,4.191c2.973,0.956,6.387,1.355,9.79,0.882c3.299-0.452,6.513-1.723,9.118-3.424
			c2.626-1.702,4.685-3.729,6.345-5.777c3.319-4.128,5.252-8.32,6.733-12.522c2.668-7.773,3.971-15.662,4.527-23.331
			c0.546-7.668,0.378-15.127,0.021-22.322c-0.473-8.95-1.155-17.511-1.26-25.6c-0.074-4.864,0.063-9.559,0.588-14.066
			c0.074-0.63,0.147-1.25,0.242-1.87c0.714-5.21,1.996-10.221,3.866-14.675c2.091-5,4.906-9.255,8.309-12.416
			c0.116-0.105,0.231-0.21,0.347-0.315c3.057-2.721,7.101-4.727,10.998-5.473c1.145-0.22,2.269-0.347,3.33-0.357
			c0.83-0.021,1.628,0.021,2.374,0.126c1.733,0.221,3.214,0.735,4.485,1.46c0.084,0.042,0.179,0.095,0.273,0.147
			c0.242,0.126,0.494,0.252,0.725,0.368c1.922,0.914,3.929,1.397,5.924,1.471c5.925,0.252,11.692-2.994,14.402-8.677
			C324.898,122.81,321.673,113.713,314.068,110.089z M241.134,249.159c-0.672,2.406-1.691,4.633-2.668,5.998
			c-0.483,0.683-0.924,1.135-1.198,1.376c-0.284,0.231-0.378,0.284-0.515,0.357c-0.052,0.042-0.179,0.105-0.525,0.053
			c-0.347-0.053-0.872-0.273-1.418-0.63c-0.557-0.357-1.124-0.872-1.555-1.429c-0.105-0.147-0.231-0.284-0.315-0.431l-0.147-0.21
			l-0.158-0.284c-0.231-0.389-0.42-0.819-0.62-1.271c-0.746-1.828-1.218-4.265-1.355-7.091c-0.063-1.418-0.094-2.92-0.021-4.475
			l0.084-2.332l0.168-2.321c0.536-6.177,1.807-12.301,3.834-18.12c1.754-5.032,4.097-9.832,7.007-14.202
			c0.294,2.689,0.588,5.326,0.851,7.931c0.672,6.681,1.124,13.152,0.987,19.381C243.445,237.678,242.71,243.665,241.134,249.159z"/>
		<path style="fill:#F0FFEA;" d="M239.758,181.877"/>
		
			<linearGradient id="SVGID_00000072278526672882108730000015651494570192019592_" gradientUnits="userSpaceOnUse" x1="226.2166" y1="252.9648" x2="226.9169" y2="180.1327">
			<stop  offset="0" style="stop-color:#0012A5"/>
			<stop  offset="1" style="stop-color:#00E0CA"/>
		</linearGradient>
		<path style="fill:url(#SVGID_00000072278526672882108730000015651494570192019592_);" d="M234.811,256.313
			c0.546,0.357,1.071,0.578,1.418,0.63c0,0-0.767,0.326-2.08,0.672c-4.191,1.124-13.971,2.5-22.543-5.483
			c-0.273-2.111-0.368-4.16-0.368-6.103c0-0.851,0.021-1.681,0.053-2.49c0.031-1.187,0.105-2.332,0.21-3.466
			c0.084-0.967,0.158-1.923,0.252-2.878l0.2-1.597l0.158-1.282c0.199-1.45,0.441-2.889,0.704-4.328
			c1.134-6.145,2.868-12.185,5.242-18.005c1.492-3.582,3.162-7.101,5.137-10.473c1.996-3.361,4.181-6.618,6.66-9.664
			c2.511-3.036,5.189-5.904,8.193-8.54c0.567-0.483,1.135-0.966,1.712-1.429c0,0,0.158,6.261,0.662,12.48
			c0.294,3.729,0.725,7.448,1.313,9.79c-2.91,4.37-5.252,9.171-7.007,14.202c-2.027,5.82-3.298,11.944-3.834,18.12l-0.168,2.321
			l-0.084,2.332c-0.074,1.555-0.042,3.057,0.021,4.475c0.095,1.901,0.336,3.624,0.714,5.095c0.178,0.725,0.399,1.397,0.641,1.996
			c0.2,0.452,0.389,0.882,0.62,1.271l0.158,0.284l0.147,0.21c0.084,0.147,0.21,0.284,0.315,0.431
			C233.687,255.441,234.254,255.956,234.811,256.313z"/>
		
			<linearGradient id="SVGID_00000164481773720759963270000009320180858224483489_" gradientUnits="userSpaceOnUse" x1="265.9661" y1="166.6869" x2="270.5619" y2="182.3126">
			<stop  offset="0" style="stop-color:#000000"/>
			<stop  offset="1" style="stop-color:#000000;stop-opacity:0"/>
		</linearGradient>
		<path style="opacity:0.32;fill:url(#SVGID_00000164481773720759963270000009320180858224483489_);" d="M272.102,167.665
			c-1.303,4.055-2.658,9.559-3.046,15.725c-1.229,0.378-2.448,0.809-3.645,1.292c-0.074-4.864,0.063-9.559,0.588-14.066
			c0.074-0.63,0.147-1.25,0.242-1.87c1.124-0.273,2.259-0.515,3.404-0.714C270.463,167.896,271.283,167.77,272.102,167.665z"/>
		
			<linearGradient id="SVGID_00000160880336725782449330000007112160812569510553_" gradientUnits="userSpaceOnUse" x1="218.1189" y1="238.694" x2="224.2106" y2="259.4059">
			<stop  offset="0" style="stop-color:#000000"/>
			<stop  offset="1" style="stop-color:#000000;stop-opacity:0"/>
		</linearGradient>
		<path style="opacity:0.31;fill:url(#SVGID_00000160880336725782449330000007112160812569510553_);" d="M211.606,252.132
			c-0.273-2.111-0.368-4.16-0.368-6.103c0-0.851,0.021-1.681,0.053-2.49c4.443,4.885,11.691,10.652,22.858,14.076
			C229.958,258.74,220.178,260.116,211.606,252.132z"/>
		
			<linearGradient id="SVGID_00000088131878644820194470000014271046010236561285_" gradientUnits="userSpaceOnUse" x1="217.0723" y1="192.8453" x2="235.0622" y2="254.0112">
			<stop  offset="0" style="stop-color:#000000"/>
			<stop  offset="1" style="stop-color:#000000;stop-opacity:0"/>
		</linearGradient>
		<path style="opacity:0.28;fill:url(#SVGID_00000088131878644820194470000014271046010236561285_);" d="M234.811,256.313
			c0.546,0.357,1.071,0.578,1.418,0.63c0,0-0.767,0.326-2.08,0.672c-4.191,1.124-13.971,2.5-22.543-5.483
			c-0.273-2.111-0.368-4.16-0.368-6.103c0-0.851,0.021-1.681,0.053-2.49c0.031-1.187,0.105-2.332,0.21-3.466
			c0.084-0.967,0.158-1.923,0.252-2.878l0.2-1.597c2.689,4.916,7.195,11.597,10.956,9.423c5.599-3.214,0.021-34.549,17.511-50.663
			c0.294,3.729,0.725,7.448,1.313,9.79c-2.91,4.37-5.252,9.171-7.007,14.202c-2.027,5.82-3.298,11.944-3.834,18.12l-0.168,2.321
			l-0.084,2.332c-0.074,1.555-0.042,3.057,0.021,4.475c0.095,1.901,0.336,3.624,0.714,5.095c0.178,0.725,0.399,1.397,0.641,1.996
			c0.2,0.452,0.389,0.882,0.62,1.271l0.158,0.284l0.147,0.21c0.084,0.147,0.21,0.284,0.315,0.431
			C233.687,255.441,234.254,255.956,234.811,256.313z"/>
		
			<linearGradient id="SVGID_00000000180624313721446690000012843158627821664644_" gradientUnits="userSpaceOnUse" x1="212.5225" y1="302.8532" x2="297.2594" y2="132.6794">
			<stop  offset="0" style="stop-color:#FFFFFF"/>
			<stop  offset="1" style="stop-color:#FFFFFF;stop-opacity:0"/>
		</linearGradient>
		<path style="opacity:0.27;fill:url(#SVGID_00000000180624313721446690000012843158627821664644_);" d="M293.09,135.51
			c-1.061,0.011-2.185,0.137-3.33,0.357c-4.044,0.777-8.257,2.91-11.345,5.788c-3.403,3.162-6.219,7.416-8.309,12.416
			c-1.87,4.454-3.151,9.465-3.866,14.675c-0.094,0.62-0.168,1.24-0.242,1.87c-0.525,4.507-0.662,9.202-0.588,14.066
			c0.105,8.088,0.788,16.65,1.26,25.6c0.357,7.196,0.525,14.654-0.021,22.322c-0.557,7.668-1.859,15.557-4.527,23.331
			c-1.481,4.202-3.414,8.393-6.733,12.522c-1.66,2.048-3.719,4.076-6.345,5.777c-2.605,1.702-5.819,2.973-9.118,3.424
			c-3.404,0.473-6.818,0.073-9.79-0.882c-2.983-0.966-5.546-2.458-7.763-4.191c-2.216-1.754-4.097-3.782-5.651-6.072
			c-0.378-0.578-0.767-1.145-1.103-1.765l-0.515-0.914l-0.42-0.872c-0.252-0.504-0.473-1.008-0.683-1.513
			c7.479,4.874,22.427,12.227,34.476,3.183c16.807-12.606,2.71-86.663,11.902-111.002C268.62,131.808,286.283,134.081,293.09,135.51
			z"/>
		
			<linearGradient id="SVGID_00000031206767731858599970000016671885549287313572_" gradientUnits="userSpaceOnUse" x1="215.7102" y1="301.8493" x2="294.0933" y2="144.4355">
			<stop  offset="0" style="stop-color:#FFFFFF"/>
			<stop  offset="1" style="stop-color:#FFFFFF;stop-opacity:0"/>
		</linearGradient>
		<path style="opacity:0.17;fill:url(#SVGID_00000031206767731858599970000016671885549287313572_);" d="M278.762,141.34
			c-0.115,0.105-0.231,0.21-0.347,0.315c-3.403,3.162-6.219,7.416-8.309,12.416c-1.87,4.454-3.151,9.465-3.866,14.675
			c-0.094,0.62-0.168,1.24-0.242,1.87c-0.525,4.507-0.662,9.202-0.588,14.066c0.105,8.088,0.788,16.65,1.26,25.6
			c0.357,7.196,0.525,14.654-0.021,22.322c-0.557,7.668-1.859,15.557-4.527,23.331c-1.481,4.202-3.414,8.393-6.733,12.522
			c-1.66,2.048-3.719,4.076-6.345,5.777c-2.605,1.702-5.819,2.973-9.118,3.424c-3.404,0.473-6.818,0.073-9.79-0.882
			c-2.983-0.966-5.546-2.458-7.763-4.191c-1.975-1.565-3.687-3.351-5.126-5.336c-0.126-0.273-0.242-0.536-0.357-0.809
			c7.479,4.874,22.427,12.227,34.476,3.183c16.807-12.605,2.71-86.663,11.902-111.002
			C267.091,148.515,272.921,143.578,278.762,141.34z"/>
		
			<linearGradient id="SVGID_00000079472230499911388830000003239585710373568941_" gradientUnits="userSpaceOnUse" x1="286.4749" y1="137.2113" x2="303.1658" y2="103.6915">
			<stop  offset="0" style="stop-color:#FFFFFF"/>
			<stop  offset="1" style="stop-color:#FFFFFF;stop-opacity:0"/>
		</linearGradient>
		<path style="opacity:0.3;fill:url(#SVGID_00000079472230499911388830000003239585710373568941_);" d="M321.274,130.405
			c-3.624,7.605-12.721,10.83-20.326,7.206c-0.231-0.115-0.483-0.242-0.725-0.368c11.461-26.388-14.024-25.999-34.108-22.228
			c5.042-3.53,10.694-6.135,16.786-7.742c4.748-1.229,9.801-1.807,15.011-1.471c5.2,0.326,10.567,1.618,15.536,3.992l0.62,0.294
			C321.673,113.713,324.898,122.81,321.274,130.405z"/>
		
			<linearGradient id="SVGID_00000122709043265422938100000007790056756455408769_" gradientUnits="userSpaceOnUse" x1="300.8494" y1="142.594" x2="316.8153" y2="110.5302">
			<stop  offset="0" style="stop-color:#FFFFFF"/>
			<stop  offset="1" style="stop-color:#FFFFFF;stop-opacity:0"/>
		</linearGradient>
		<path style="opacity:0.3;fill:url(#SVGID_00000122709043265422938100000007790056756455408769_);" d="M321.274,130.405
			c-2.71,5.683-8.477,8.929-14.402,8.677c11.849-16.093,4.507-26.724-2.51-32.375c3.088,0.662,6.156,1.691,9.086,3.088l0.62,0.294
			C321.673,113.713,324.898,122.81,321.274,130.405z"/>
	</g>
</g>
<g id="TEXTS">
	<g>
		
			<text transform="matrix(1 0 0 1 107.5 332.2598)" style="fill:#FFFFFF; font-family:'Poppins-ExtraBold'; font-size:39.2295px; letter-spacing:2;">BRANDNAME</text>
		
			<text transform="matrix(1 0 0 1 154.2271 359.7119)" style="fill:#FFFFFF; font-family:'Poppins-Medium'; font-size:13.5932px; letter-spacing:3;">TAGLINE GOES HERE</text>
	</g>
</g>
</svg>
